<svg xmlns="http://www.w3.org/2000/svg" viewBox="0 0 200 200" role="img" aria-label="Paper fan">
<defs><mask id="m"><rect width="200" height="200" fill="#fff"/><circle cx="0" cy="0" r="5" fill="#000"/><circle cx="0" cy="200" r="5" fill="#000"/><circle cx="0" cy="0" r="5" fill="#000"/><circle cx="200" cy="0" r="5" fill="#000"/><circle cx="14" cy="0" r="5" fill="#000"/><circle cx="14" cy="200" r="5" fill="#000"/><circle cx="0" cy="14" r="5" fill="#000"/><circle cx="200" cy="14" r="5" fill="#000"/><circle cx="28" cy="0" r="5" fill="#000"/><circle cx="28" cy="200" r="5" fill="#000"/><circle cx="0" cy="28" r="5" fill="#000"/><circle cx="200" cy="28" r="5" fill="#000"/><circle cx="42" cy="0" r="5" fill="#000"/><circle cx="42" cy="200" r="5" fill="#000"/><circle cx="0" cy="42" r="5" fill="#000"/><circle cx="200" cy="42" r="5" fill="#000"/><circle cx="56" cy="0" r="5" fill="#000"/><circle cx="56" cy="200" r="5" fill="#000"/><circle cx="0" cy="56" r="5" fill="#000"/><circle cx="200" cy="56" r="5" fill="#000"/><circle cx="70" cy="0" r="5" fill="#000"/><circle cx="70" cy="200" r="5" fill="#000"/><circle cx="0" cy="70" r="5" fill="#000"/><circle cx="200" cy="70" r="5" fill="#000"/><circle cx="84" cy="0" r="5" fill="#000"/><circle cx="84" cy="200" r="5" fill="#000"/><circle cx="0" cy="84" r="5" fill="#000"/><circle cx="200" cy="84" r="5" fill="#000"/><circle cx="98" cy="0" r="5" fill="#000"/><circle cx="98" cy="200" r="5" fill="#000"/><circle cx="0" cy="98" r="5" fill="#000"/><circle cx="200" cy="98" r="5" fill="#000"/><circle cx="112" cy="0" r="5" fill="#000"/><circle cx="112" cy="200" r="5" fill="#000"/><circle cx="0" cy="112" r="5" fill="#000"/><circle cx="200" cy="112" r="5" fill="#000"/><circle cx="126" cy="0" r="5" fill="#000"/><circle cx="126" cy="200" r="5" fill="#000"/><circle cx="0" cy="126" r="5" fill="#000"/><circle cx="200" cy="126" r="5" fill="#000"/><circle cx="140" cy="0" r="5" fill="#000"/><circle cx="140" cy="200" r="5" fill="#000"/><circle cx="0" cy="140" r="5" fill="#000"/><circle cx="200" cy="140" r="5" fill="#000"/><circle cx="154" cy="0" r="5" fill="#000"/><circle cx="154" cy="200" r="5" fill="#000"/><circle cx="0" cy="154" r="5" fill="#000"/><circle cx="200" cy="154" r="5" fill="#000"/><circle cx="168" cy="0" r="5" fill="#000"/><circle cx="168" cy="200" r="5" fill="#000"/><circle cx="0" cy="168" r="5" fill="#000"/><circle cx="200" cy="168" r="5" fill="#000"/><circle cx="182" cy="0" r="5" fill="#000"/><circle cx="182" cy="200" r="5" fill="#000"/><circle cx="0" cy="182" r="5" fill="#000"/><circle cx="200" cy="182" r="5" fill="#000"/><circle cx="196" cy="0" r="5" fill="#000"/><circle cx="196" cy="200" r="5" fill="#000"/><circle cx="0" cy="196" r="5" fill="#000"/><circle cx="200" cy="196" r="5" fill="#000"/></mask></defs>
<g mask="url(#m)"><rect width="200" height="200" fill="#FFF8E8"/></g>
<rect x="17" y="17" width="166" height="166" fill="#F8D9A8" stroke="#C41E2A" stroke-width="2.5"/>
<rect x="23" y="23" width="154" height="154" fill="none" stroke="#C41E2A" stroke-width="1" stroke-dasharray="3 3"/>
<g transform="translate(20,20)"><g transform="translate(16,22) scale(.8)"><path d="M80 130 L186.3 101.5 L175.3 75.0 Z" fill="#C41E2A" stroke="#16303A" stroke-width="1.2"/><path d="M80 130 L175.3 75.0 L157.8 52.2 Z" fill="#F1EB7A" stroke="#16303A" stroke-width="1.2"/><path d="M80 130 L157.8 52.2 L135.0 34.7 Z" fill="#F07A2E" stroke="#16303A" stroke-width="1.2"/><path d="M80 130 L135.0 34.7 L108.5 23.7 Z" fill="#C41E2A" stroke="#16303A" stroke-width="1.2"/><path d="M80 130 L108.5 23.7 L80.0 20.0 Z" fill="#F1EB7A" stroke="#16303A" stroke-width="1.2"/><path d="M80 130 L80.0 20.0 L51.5 23.7 Z" fill="#F07A2E" stroke="#16303A" stroke-width="1.2"/><path d="M80 130 L51.5 23.7 L25.0 34.7 Z" fill="#C41E2A" stroke="#16303A" stroke-width="1.2"/><path d="M80 130 L25.0 34.7 L2.2 52.2 Z" fill="#F1EB7A" stroke="#16303A" stroke-width="1.2"/><path d="M80 130 L2.2 52.2 L-15.3 75.0 Z" fill="#C41E2A" stroke="#16303A" stroke-width="1.2"/><path d="M80 130 L-15.3 75.0 L-26.3 101.5 Z" fill="#F1EB7A" stroke="#16303A" stroke-width="1.2"/><path d="M188.2 101.0 A112 112 0 0 0 -28.2 101.0" fill="none" stroke="#16303A" stroke-width="3"/>
<circle cx="80" cy="130" r="8" fill="#16303A"/><rect x="74" y="130" width="12" height="26" rx="5" fill="#0A7A3C" stroke="#16303A" stroke-width="1.5"/></g></g></svg>